<?xml version="1.0" encoding="utf-8"?>
<!-- Generator: Adobe Illustrator 22.1.0, SVG Export Plug-In . SVG Version: 6.00 Build 0)  -->
<svg version="1.1" id="Layer_1" xmlns="http://www.w3.org/2000/svg" xmlns:xlink="http://www.w3.org/1999/xlink" x="0px" y="0px"
	 viewBox="0 0 290 60" style="enable-background:new 0 0 290 60;" xml:space="preserve">
<style type="text/css">
	.st0{fill:#231F20;}
	.st1{fill:#C4A006;}
	.st2{fill-rule:evenodd;clip-rule:evenodd;fill:#C4A006;}
</style>
<g>
</g>
<g>
	<g>
		<g>
			<g>
				<path class="st0" d="M211.8,50.2l-0.3-0.3c-0.1,0.5-0.4,0.9-0.5,1.2c-0.1,0.2-0.5,0.5-0.8,0.6c-0.8,0.3-1.8,0.4-2.5,0.4
					l-8.2-0.1l-0.4-9.6h2.2c0.9,0,2.2,0.1,3.5,0.1c1.3,0,2.3,0.1,2.5,0.1c0.1,0,0.4,0.1,0.4,0.3c0,0,0.1,0.2,0.1,0.4v0.5h0.4
					c0-0.6,0.4-1.6,0.8-2.9l-10,0.2l-0.2-8.2c0.2,0,0.9-0.1,1.5-0.1h2.7c2.8,0,4.7,0.2,5.2,0.5c0.3,0,0.5,0.3,0.5,0.4
					c0,0.1,0.2,0.5,0.2,0.8c0,0.2,0,0.5,0,0.5h0.4c0-0.5,0.1-1.1,0.3-1.5c0-0.2,0.4-1,0.6-1.8l-0.1-0.4h-9.2
					c-1.1,0.4-2.2,0.6-2.9,0.6h-3.2l0.1,0.1c-0.1,0.1-0.1,0.2-0.2,0.3c0,0,0,0.1-0.1,0.1c0,0,0,0,0.1,0c0.7,0,1.2,0.1,1.3,0.1
					c0.5,0.3,0.9,2,1,4.9c0.1,2.9,0.2,6.4,0.2,10.5c0,1.2-0.1,2.5-0.1,3.9c0,1.3,0,2,0,2c0.3,0,0.6-0.3,0.9-0.3h12.9l1.1-3.1V50.2
					L211.8,50.2z"/>
			</g>
		</g>
		<g>
			<g>
				<path class="st0" d="M226.2,42.6c-1.4-0.9-3.2-1.5-5.2-1.5c-2.5,0-4.4-0.5-5.4-1.3c-1-0.8-1.6-2-1.6-3.7c0-1.3,0.5-2.1,1.2-2.5
					c0.8-0.3,2-0.6,3.5-0.6c1,0,2,0.1,3,0.2c0.9,0,1.8,0.3,2.4,0.5c0.6,0.1,1.1,0.4,1.3,0.6c0,0.2,0.3,0.6,0.3,1
					c0,0.3,0.2,0.6,0.2,0.8l0.2-0.2c0-1.1,0.3-2.4,0.5-3.5l-0.2-0.3c0.2,0-0.5-0.1-2.3-0.4c-1.8-0.1-3.3-0.2-4.3-0.2
					c-1,0-1.9,0.1-2.5,0.2c-0.5,0-1.3,0.4-2,0.9l-1.6,1.4c-0.8,0.6-1.4,1.2-1.6,1.8c-0.1,0.3-0.2,0.7-0.3,1.1c0,0.4-0.1,0.8-0.1,1.2
					c0,0.4,0,0.7,0.1,1.1c0.2,1.5,0.9,2.5,2.1,3.1c1.3,0.8,3.2,1.2,5.3,1.2c2.5,0,4.3,0.5,5.3,1.3c1,0.8,1.6,2,1.6,3.8
					c0,2.5-1.6,3.9-4.9,3.9c-1.3,0-2.7-0.1-3.9-0.4c-1.3-0.1-2.3-0.5-3-0.8c-0.9-0.2-1.4-1-1.4-2.1l-0.2-0.4c0,1-0.4,2.5-0.8,4
					l0.2,0.4c0.8,0.1,1.9,0.4,3.4,0.6c1.5,0.1,2.9,0.3,4,0.3c0.9,0,1.9-0.3,2.6-0.5c0.8-0.3,1.5-0.6,2-1c0.5-0.2,0.9-0.6,0.9-0.6
					l0.6-0.5c1.8-1.3,2.6-2.9,2.6-4.5C228.4,45,227.6,43.5,226.2,42.6z"/>
			</g>
		</g>
		<g>
			<g>
				<path class="st0" d="M162.6,43.6c-1.6-1-3.8-1.8-6.1-1.8c-3,0-5.3-0.5-6.6-1.4c-1.3-0.9-2-2.5-2-4.6c0-1.5,0.6-2.5,1.6-3
					c1-0.4,2.4-0.8,4.2-0.8c1.1,0,2.4,0.1,3.5,0.3c1.1,0.1,2.3,0.4,3.2,0.6c0.8,0.2,1.4,0.6,1.4,0.9c0.1,0.2,0.4,0.6,0.5,1.1
					c0,0.4,0.1,0.8,0.1,0.9l0.3-0.2c0-1.3,0.2-2.8,0.8-4.3l-0.3-0.2c0,0-0.6-0.1-1.6-0.3c-1-0.1-2.1-0.4-3.3-0.5
					c-1.1-0.1-2.3-0.3-3-0.3c-1.6,0-3.5,0.6-5.4,1.9l-2,1.2c-0.4,0.3-1,1-1.6,2c-0.5,0.9-0.9,1.9-0.9,2.9c0,1.6,0.5,3,1.3,4
					c0.8,0.9,2,1.6,3.3,1.9c1.3,0.2,2.8,0.5,4.3,0.5c2,0,3.7,0.4,4.8,0.8c1.1,0.4,2.2,1.1,2.6,1.9c0.5,0.8,0.9,2,0.9,3.4
					c0,3.1-2,4.8-5.9,4.8c-1.4,0-3-0.3-4.5-0.5c-1.5-0.2-2.8-0.5-3.7-0.8c-1-0.4-1.6-1.4-1.6-2.8l-0.4-0.3c0,1.5-0.4,3.2-0.9,4.8
					l0.2,0.5c0,0,0.6,0.1,1.6,0.3c1,0.1,2.4,0.4,3.7,0.5c1.3,0.1,2.5,0.3,3.5,0.3c0.8,0,1.6-0.1,2.4-0.4c0.8-0.1,1.5-0.5,2-0.8
					c0.5-0.3,1.1-0.6,1.5-0.9c0.4-0.3,0.8-0.5,0.8-0.5l0.9-0.6c2-1.5,3.2-3.5,3.2-5.6C165.2,46.5,164.2,44.7,162.6,43.6z"/>
			</g>
		</g>
		<g>
			<g>
				<path class="st0" d="M194.4,32.4l-0.1-0.5h0.3l-0.1-0.1c0,0,0,0-0.1,0c-4,0-8,0.1-11.5,0.1c-3.2,0-6.4-0.1-9.5-0.1
					c0,0.6-0.1,1.3-0.4,2.2c-0.1,0.3-0.2,0.6-0.3,1l0.2,0.1c0,0,0.1-0.1,0.2-0.2c0.1-0.1,0.2-0.2,0.3-0.3c0.1-0.2,0.4-0.6,0.5-0.8
					c0.1-0.1,0.4-0.4,0.5-0.4c1-0.1,2.5-0.2,4.4-0.2c0.8,0,1.5,0.1,2,0.1h1.3v4.1c0,1.1,0.1,2.5,0.1,3.8v4.8c0,3.5-0.1,6.2-0.1,7.8
					l0.2,0.3h1.5c0.9,0,1.8,0.1,2.5,0.2l0.2-0.2c-0.5-0.1-1.1-0.5-1.4-0.8c-0.4-0.5-0.6-1.6-0.6-2.9l-0.3-17.1
					c5.6,0,8.6,0.1,8.7,0.1c0.2,0,0.5,0.5,0.5,1.3l0.2,0.1C193.8,33.9,194,33.1,194.4,32.4c0,0-0.1,0-0.1,0H194.4z"/>
			</g>
		</g>
		<g>
			<g>
				<path class="st0" d="M172.9,35L172.9,35c-0.1,0-0.1,0-0.1,0H172.9z"/>
			</g>
		</g>
		<g>
			<g>
				<path class="st0" d="M171.7,53.1c-0.4-0.3-0.6-0.8-0.6-1.4V31.6l-0.4-0.4c-0.8,0.3-2.3,0.4-4,0.4v0.3h-0.1
					c0.6,0,1.3,0.2,1.5,0.6c0.2,0.4,0.5,1.4,0.5,2.8v18.4l0.1,0.3c1-0.3,1.8-0.4,2.2-0.4c0.2,0,1,0.1,2.1,0.3l0.1-0.1l0.3-0.2H173
					C172.5,53.5,172,53.3,171.7,53.1z"/>
			</g>
		</g>
		<g>
			<g>
				<path class="st0" d="M259.1,25.6c0,0-0.4,0.4-0.6,0.6c-0.2,0.3-0.9,0.6-1.5,0.9c-0.6,0.3-1.5,0.6-2.5,0.9
					c-1,0.2-2.1,0.4-3.4,0.4c-2.2,0-4.2-0.4-5.7-0.9c-1.5-0.5-2.9-1.5-3.8-3c-0.9-1.5-1.4-3.7-1.4-6.4c0-2,0.3-3.7,0.6-4.9
					c0.2-1.2,0.9-2.2,1.6-2.7c0.8-0.5,1.6-1,2.6-1.3c0.9-0.1,2.2-0.4,3.4-0.4c1.5,0,3.3,0.3,4.8,0.5c1.5,0.2,2.5,0.8,2.9,1
					c0.2,0.2,0.5,0.8,0.5,1c0,0.2,0.1,0.6,0.1,0.8l0.4-0.4c0.1-1.1,0.5-2.3,1-3.3V8.2c0,0-0.9-0.1-2.6-0.3c-1.8-0.1-3.4-0.4-4.7-0.4
					c-3.3,0-6.2,0.9-8.7,2.4l-0.9,0.6c-1.3,0.9-2.4,2.2-2.9,3.5c-0.5,1.3-0.8,2.8-0.8,4.3c0,1.8,0.4,3.5,0.6,4.8
					c0.2,1.3,0.9,2.5,1.6,3.5c0.8,1,2,1.9,3.5,2.4c1.5,0.5,3.5,1,5.9,1c1.4,0,2.8-0.3,4-0.6c1.3-0.4,2.4-1,3.2-1.5
					c0.8-0.5,1.5-1.1,2-1.6c0.5-0.5,0.9-0.8,0.9-0.8H259.1z"/>
			</g>
		</g>
		<g>
			<g>
				<path class="st0" d="M234.8,27.6V7.5l-0.4-0.4c-0.7,0.2-1.9,0.4-3.4,0.4h-0.6v0.3h-0.1c0.3,0,0.5,0.1,0.8,0.1
					c0.3,0.1,0.6,0.3,0.8,0.5c0.2,0.4,0.5,1.4,0.5,2.8v18.4l0.1,0.2c1-0.2,1.8-0.4,2.2-0.4c0.2,0,1,0.1,2.2,0.3l0.4-0.3
					c-0.6,0-1.3-0.2-1.6-0.5C235.1,28.8,234.8,28.2,234.8,27.6z"/>
			</g>
		</g>
		<g>
			<g>
				<path class="st0" d="M231,29.3c-0.1,0-0.3,0.1-0.3,0.1c-0.2,0-0.5-0.1-0.6-0.3c-0.9-0.2-2-1.3-3-2.5c-1-1.2-2.1-3-3.4-4.9
					c-0.3-0.5-0.8-1.2-1.3-1.6c-0.5-0.5-0.9-1-1-1.2v-0.4c0.3,0,0.8-0.4,1.5-0.9c0.8-0.5,1.5-1.3,2.1-2.2c0.5-0.8,0.9-1.9,0.9-2.9
					c-0.1-2.2-0.9-3.7-2.2-4.4c-1.2-0.6-3.1-1-5.4-1c0,0,0,0-0.1,0H215c-1.1,0.4-2.4,0.6-3.7,0.6h-2l-0.1,0.1v0.1
					c0.4,0.1,0.8,0.4,1,0.6c0.2,0.4,0.5,1.1,0.5,2c0,1.4,0.1,3.4,0.1,5.8c0,2.4,0.3,4.9,0.3,7.5c0,2.4,0.1,4.4,0.1,5.7l0.3,0.1
					c0.5,0,1-0.1,1.5-0.1c0.5,0,1.4,0.1,2.4,0.2l0.3-0.2c0,0-0.4-0.1-0.6-0.2c-0.2-0.1-0.6-0.4-0.8-0.4c-0.2-0.3-0.5-0.9-0.5-1.6
					l-0.1-8h2.1c1.1,0,2.1,0.1,2.7,0.2c0.1,0,0.2,0,0.3,0.1c0.4,0.1,1,0.9,1.8,1.9c0.6,1,1.5,2.4,2.5,3.8c0.9,1.2,1.9,2.5,2.9,3.3
					c1,0.8,2,1.2,3,1.2c0.4,0,1.1-0.1,2-0.2c0.2,0,0.5-0.1,0.8-0.1v-0.4c-0.1,0-0.4,0.1-0.6,0.1C231.1,29.3,231.1,29.3,231,29.3z
					 M219.2,18.1h-0.7c-2.8,0-4.5-0.1-5.1-0.4v-9l4.7-0.1c0.1,0,0.3,0,0.4,0c3.4,0.2,5.1,2,5.1,5.5
					C223.6,16.8,222.1,18.1,219.2,18.1z"/>
			</g>
		</g>
		<g>
			<g>
				<path class="st0" d="M187.9,10.7h-0.1c-0.3,0.2-0.6,0.5-0.9,0.8c-0.9,1.2-1.4,3-1.4,5.4V18c0.1,2,0.4,3.9,0.6,5.2
					c0.2,0.7,0.4,1.5,0.8,2.2c0.3,0.5,0.6,1,0.9,1.4c0.1,0.1,0.2,0.2,0.2,0.3c0.8,0.9,1.9,1.7,3.3,2.2c1.5,0.5,3.8,0.9,6.3,0.9
					c1.8,0,3.7-0.5,5.7-1.5l1.6-1c2.4-1.4,3.9-3.7,4.3-7c0.1-0.6,0.1-1.3,0.1-1.9c0-0.7-0.1-1.5-0.1-2.2c-0.1-1.4-0.4-2.7-0.8-3.8
					c-0.5-1.5-1.6-2.9-3.2-3.9c-1.5-1-3.9-1.6-6.7-1.6c-1.8,0-3.3,0.1-4.3,0.1c-0.9,0-1.8,0.4-2.4,0.8l-3.9,2.5L187.9,10.7z
					 M191,9.7c1.1-0.4,3-0.7,5.2-0.8c2.5,0,4.6,0.4,6.1,1.1c1.4,0.6,2.5,1.6,3.2,2.7c0.5,1,1,2.3,1.2,3.4c0.1,1.1,0.2,2.8,0.2,4.7
					v1.1c0,1.4-0.2,2.6-0.6,3.5c-0.4,0.9-1.4,1.6-2.7,2.2c-1.3,0.5-3.3,0.8-5.8,0.8c-2.8,0-4.9-0.6-6.4-1.6c-1.4-1-2.4-2.4-2.9-4
					c-0.2-0.7-0.4-1.4-0.5-2.2c-0.2-1.1-0.2-2.4-0.2-3.7c0-1.2,0.1-2.2,0.2-3.1c0.1-0.6,0.3-1.1,0.5-1.6
					C189,11.1,189.9,10.2,191,9.7z"/>
			</g>
		</g>
		<g>
			<g>
				<path class="st0" d="M140.9,28.5c-0.5-0.6-0.8-1.3-0.8-1.5c0-1.8-0.1-4.3-0.1-7.5V2.8c-1.4,0.1-2.5,0.3-3.2,0.3
					c-0.2,0-0.9-0.1-1.5-0.1l-0.5,0.5c0.5,0,1,0.2,1.5,0.6c0.4,0.2,0.6,0.9,0.6,1.4l0.2,9.5h-17.7l-0.1-8.7c0-0.5,0.1-1.1,0.1-1.6
					c0-0.5,0.2-1,0.2-1.3l-0.1-0.4c-1.5,0.2-3.3,0.4-5,0.4l-0.4,0.2c0,0,0.4,0.1,0.8,0.1c0.2,0,0.6,0.2,0.8,0.4
					c0.5,0.2,0.9,1.1,0.9,2.2c0,0.9,0.2,2.3,0.2,3.9c0,1.6,0.1,3.4,0.1,5.1c0,5.8-0.1,10.6-0.1,14.3l0.4,0.4h2
					c0.8,0,1.6,0.1,2.7,0.1l0.2-0.5c-0.6,0-1.3-0.3-1.8-0.6c-0.3-0.2-0.5-1.1-0.5-2.6l-0.3-10l17.5-0.1v13.4l0.5,0.4h4.5l0.4-0.3
					c-0.1,0-0.5-0.1-0.9-0.4C141.4,29,141,28.8,140.9,28.5z"/>
			</g>
		</g>
		<g>
			<g>
				<path class="st0" d="M166.6,10.7c0.1-0.1,0.2-0.2,0.3-0.3c0.1-0.2,0.4-0.6,0.5-0.8c0.1-0.1,0.4-0.4,0.5-0.4
					c1-0.1,2.5-0.2,4.4-0.2c0.8,0,1.5,0.1,2,0.1h1.3v4c0,1.2,0.1,2.5,0.1,3.8v4.8c0,3.5-0.1,6.2-0.1,7.8l0.2,0.2h1.5
					c0.9,0,1.8,0.1,2.5,0.3l0.3-0.3c-0.5-0.1-1.1-0.5-1.4-0.8c-0.4-0.5-0.6-1.6-0.6-2.9l-0.3-17c5.6,0,8.6,0.1,8.7,0.1
					c0.1,0,0.2,0.1,0.2,0.2c0.2,0.2,0.3,0.6,0.3,1.1l0.2,0.1c0-0.8,0.2-1.7,0.6-2.4c0.1-0.1,0.2-0.3,0.3-0.4l-0.1-0.2
					c-0.1,0-0.1,0-0.1,0h-1.1c-3.6,0-7.2,0.1-10.3,0.1c-3.2,0-6.4-0.1-9.5-0.1c0,0.6-0.1,1.3-0.4,2.2c-0.1,0.3-0.2,0.7-0.3,1
					l0.2,0.1C166.5,10.9,166.6,10.8,166.6,10.7z"/>
			</g>
		</g>
		<g>
			<g>
				<path class="st0" d="M166.5,11L166.5,11c-0.1,0-0.1,0-0.1,0H166.5z"/>
			</g>
		</g>
		<g>
			<g>
				<path class="st0" d="M152.4,18.1c1.3,0.8,3.2,1.1,5.3,1.1c2.5,0,4.3,0.5,5.3,1.3c1,0.8,1.6,2,1.6,3.8c0,2.5-1.6,3.9-4.9,3.9
					c-1.3,0-2.6-0.1-3.9-0.4c-1.3-0.1-2.3-0.5-3-0.8c-0.9-0.2-1.4-1-1.4-2.1l-0.3-0.4c0,1-0.4,2.5-0.8,4.1l0.2,0.4
					c0.8,0.1,1.9,0.4,3.4,0.6c1.5,0.1,2.9,0.2,4,0.2c0.9,0,1.9-0.2,2.7-0.5c0.8-0.3,1.5-0.6,2-1c0.5-0.2,0.9-0.6,0.9-0.6l0.6-0.5
					c1.2-0.8,2-1.9,2.4-3c0.2-0.5,0.3-1,0.3-1.6c0-0.6-0.1-1.2-0.3-1.7c-0.3-1-1-1.9-1.8-2.5c-1.4-0.9-3.2-1.5-5.2-1.5
					c-2.5,0-4.4-0.5-5.4-1.3c-1-0.8-1.6-2-1.6-3.7c0-1.3,0.5-2.2,1.3-2.5c0.8-0.2,2-0.6,3.5-0.6c1,0,2,0.1,3,0.2
					c0.9,0,1.8,0.3,2.4,0.5c0.6,0.1,1.1,0.4,1.3,0.6c0,0.2,0.2,0.6,0.2,1c0,0.2,0.2,0.6,0.2,0.8l0.3-0.2c0-1.1,0.2-2.4,0.5-3.5
					L165,8.1c0.2,0-0.5-0.1-2.3-0.4c-1.8-0.1-3.3-0.2-4.3-0.2c-1,0-1.9,0.1-2.5,0.2c-0.5,0-1.3,0.4-2,0.9l-1.6,1.4
					c-0.8,0.6-1.4,1.3-1.6,1.8c-0.2,0.5-0.4,1.3-0.4,2.3C150.2,16,151,17.4,152.4,18.1z"/>
			</g>
		</g>
		<g>
			<g>
				<path class="st0" d="M149.5,29.8l0.4-0.3c-0.6,0-1.3-0.2-1.6-0.5c-0.4-0.3-0.6-0.8-0.6-1.4V7.5l-0.4-0.4c-0.8,0.3-2.3,0.4-4,0.4
					v0.3h-0.1c0.6,0,1.3,0.2,1.5,0.6c0.3,0.4,0.5,1.4,0.5,2.8v18.4l0.1,0.2c1-0.2,1.8-0.4,2.1-0.4C147.6,29.5,148.4,29.6,149.5,29.8
					z"/>
			</g>
		</g>
	</g>
	<g>
		<g>
			<g>
				<path class="st1" d="M39,22.6v0.1c0.1,0,0.2,0,0.2,0.1c0.1,0,0.1,0.1,0.1,0.1c0,0,0,0,0,0c0,0,0,0.1,0,0.1l-0.4,1.4l-0.5-1.4
					c0,0,0-0.1,0-0.1c0,0,0,0,0-0.1c0-0.1,0-0.1,0.1-0.1c0,0,0.1-0.1,0.2-0.1v-0.1h-0.9v0.1c0.1,0,0.2,0.1,0.3,0.2
					c0,0.1,0.1,0.2,0.1,0.3l-0.3,1.4l-0.5-1.5c0,0,0-0.1,0-0.1c0,0,0-0.1,0-0.1c0,0,0-0.1,0.1-0.1c0,0,0.1,0,0.2-0.1v-0.1h-0.9v0.1
					c0.1,0,0.2,0.1,0.2,0.1c0,0,0.1,0.1,0.1,0.2l0.6,2l0.2,0l0.4-1.5l0.5,1.5l0.2,0l0.6-2c0-0.1,0-0.2,0.1-0.2c0,0,0.1-0.1,0.2-0.1
					l0-0.1H39z"/>
			</g>
		</g>
		<g>
			<g>
				<path class="st1" d="M36.2,22.9c0-0.1,0.1-0.1,0.2-0.1l0-0.1l-0.8,0.3l0,0.1c0.1,0,0.2,0,0.3,0c0.1,0,0.1,0.1,0.1,0.2l0.4,1.3
					l-1.6-1.4l-0.7,0.2l0,0.1c0.1,0,0.2,0,0.3,0c0.1,0,0.1,0.1,0.1,0.2l0.4,1.3c0,0.1,0,0.3,0,0.3c0,0.1-0.1,0.1-0.2,0.1l0,0.1
					l0.8-0.2l0-0.1c-0.1,0-0.2,0-0.2,0c0,0-0.1-0.1-0.2-0.2l-0.5-1.5l1.8,1.6l0.3-0.1l-0.6-1.8C36.2,23.1,36.2,23,36.2,22.9z"/>
			</g>
		</g>
		<g>
			<g>
				<path class="st1" d="M54.3,39c0,0.1-0.2,0-0.3,0l-1.4-0.2c-0.1,0-0.2,0-0.3-0.1c-0.1,0-0.1-0.1,0-0.3h-0.2l-0.3,2l0.7,0.4
					l0.1-0.1c-0.2-0.2-0.3-0.4-0.4-0.6c0-0.2,0-0.4,0-0.6c0-0.2,0-0.3,0.1-0.3c0-0.1,0.2-0.1,0.3,0l0.7,0.1l0,0.2
					c0,0.2-0.1,0.3-0.2,0.3c-0.1,0-0.2,0.1-0.3,0.1l0,0.1l1.1,0.2V40c-0.2,0-0.3-0.1-0.3-0.2c0-0.1-0.1-0.2,0-0.3l0-0.2l0.6,0.1
					c0.1,0,0.2,0,0.2,0.1c0,0,0,0.1,0,0.3c0,0.2-0.1,0.4-0.2,0.6c-0.1,0.2-0.3,0.3-0.5,0.4l0,0.1l0.7-0.1l0.4-1.9l-0.1,0
					C54.4,39,54.4,39,54.3,39z"/>
			</g>
		</g>
		<g>
			<g>
				<path class="st1" d="M54.4,37.8c0,0.1,0,0.2-0.1,0.3c0,0.1-0.1,0.1-0.3,0.1l-1.4,0l1.9-1.2l0-0.7h-0.1c0,0.1,0,0.2-0.1,0.2
					c-0.1,0-0.1,0.1-0.3,0.1l-1.4,0c-0.1,0-0.2,0-0.3,0c0,0-0.1-0.1-0.1-0.2h-0.1l0,0.8h0.1c0-0.1,0-0.2,0.1-0.3
					c0,0,0.1-0.1,0.3-0.1l1.6-0.1l-2,1.3v0.3l1.9-0.1c0.1,0,0.3,0,0.3,0c0,0,0.1,0.1,0.1,0.2h0.1l0-0.8H54.4z"/>
			</g>
		</g>
		<g>
			<path class="st1" d="M38.7,27.3c-3.1,0-6,1.3-7.9,3.5v14.6l0,0.6l0,0v-0.1v-2.6l5.5-5.2c0,0,0-0.1,0-0.1c0-1,0.8-1.8,1.8-1.8
				c0.1,0,0.1,0,0.2,0l2.9-2.8c0-0.5-0.4-1-0.9-1.4c-0.8-0.6-1.9-0.8-2.7-0.4c0.1-0.6,0.7-1.3,1-1.6c0.6-0.4,1.2-0.6,1.7-0.5
				c0.4,0,0.7,0.1,1,0.2c0.9,0.6,1.4,1.3,1.3,2.3l1.5-1.5l0-0.1l-0.1-0.2L43.9,30l0-0.2v-0.2l0-0.2l0.1-0.2h0l0,0l0,0h0.1h0.1h0.1
				h0.1l0.1,0l0.1,0l0.1,0l0-0.1C43.1,28,41,27.3,38.7,27.3z"/>
		</g>
		<g>
			<path class="st1" d="M46.4,30.5l-0.2,0l-0.1,0l0,0v0.1l0,0.1v0.1v0.1v0.1l0,0.1l0,0l-0.2,0l-0.2,0l-0.2,0l-0.2,0l-0.2,0l-0.2,0
				l-0.1,0l-1.2,1.4c1.1-0.1,1.9,0.3,2.4,1.2c0.4,0.6,0.4,1.7-0.4,2.8c-0.3,0.4-1.1,0.8-1.7,0.8c0.9-1.1-0.2-3.4-1.6-3.5l-2.8,3.3
				c0,0.1,0.1,0.3,0.1,0.5c0,1-0.8,1.8-1.8,1.8c0,0-0.1,0-0.1,0l-5.2,6.3H46c2.1-2,3.4-4.8,3.4-7.9C49.5,35.1,48.3,32.4,46.4,30.5z"
				/>
		</g>
		<g>
			<path class="st1" d="M38.1,39.7c-1,0-1.9-0.8-1.9-1.8c0-1.1,0.8-1.9,1.9-1.9c1,0,1.8,0.8,1.8,1.9C39.9,38.9,39.1,39.7,38.1,39.7z
				 M38.1,36.1c-1,0-1.7,0.8-1.7,1.7c0,0.9,0.8,1.7,1.7,1.7c0.9,0,1.7-0.8,1.7-1.7C39.8,36.9,39,36.1,38.1,36.1z"/>
		</g>
		<g>
			<path class="st1" d="M41,30c0.2,0.1,0.5,0.3,0.7,0.5c0.6,0.7,0.4,1,0.7,1.4L42,32.2c0-0.8-0.7-1.6-1.7-1.8
				c-0.6-0.2-1.3-0.1-2,0.2c0,0,0.9-0.9,2-0.8C40.5,29.8,40.8,29.9,41,30"/>
		</g>
		<g>
			<g>
				<path class="st1" d="M55.5,45.9l-0.1-0.1c1.4-2.6,2.2-5.6,2.2-8.5c0-9.9-8-17.9-17.9-17.9c-3.1,0-6.2,0.8-8.8,2.3l-0.1-0.1
					c2.7-1.5,5.8-2.4,8.9-2.4c9.9,0,18,8.1,18,18C57.7,40.3,56.9,43.3,55.5,45.9z"/>
				<path class="st1" d="M55.5,46l-0.2-0.1l0,0c1.4-2.6,2.2-5.5,2.2-8.5c0-9.8-8-17.8-17.8-17.8c-3.1,0-6.1,0.8-8.8,2.3l0,0
					l-0.1-0.2l0,0c2.7-1.5,5.8-2.4,8.9-2.4c10,0,18.1,8.1,18.1,18.1C57.7,40.3,57,43.3,55.5,46L55.5,46z M55.5,45.9L55.5,45.9
					c1.4-2.6,2.2-5.5,2.2-8.5c0-9.9-8.1-18-18-18c-3.1,0-6.2,0.8-8.9,2.3l0,0c2.7-1.5,5.7-2.3,8.8-2.3c9.9,0,17.9,8,17.9,17.9
					C57.6,40.3,56.9,43.3,55.5,45.9z"/>
			</g>
		</g>
		<g>
			<path class="st1" d="M52.6,20.2L52.6,20.2C52.6,20.2,52.6,20.2,52.6,20.2c0.4,0.4,1.1,1,1.1,0.9c0.1-0.4,0.5-2.8,0.5-2.8
				C53.7,18.8,53,19.7,52.6,20.2z"/>
		</g>
		<g>
			<path class="st1" d="M54.5,21.9c-0.1-0.1-0.2-0.2-0.3-0.2C54.3,21.7,54.4,21.8,54.5,21.9z"/>
		</g>
		<g>
			<path class="st1" d="M30.8,13.6v4.3c0,0,0,0,0,0c2.7-1.2,5.7-1.9,8.9-1.9c4.7,0,9.1,1.5,12.7,4.1c-0.1,0-0.1-0.1-0.2-0.1
				c0.3-0.3,0.7-0.7,0.9-1l0.1-0.1l0.5-0.6c0.6-0.8,1.4-1.9,2.2-3l0.1,0.1c-0.7,1.9-0.9,5.4-0.9,6.8l0,0.1l0,0.1c0,0,0,0,0,0
				c3.8,3.9,6.1,9.2,6.1,15c0,3-0.6,5.9-1.8,8.6h3.8V13.6H30.8z M61.5,23c-0.1,0.3-0.3,0.3-0.4,0.2c-0.1,0-0.1,0-0.2-0.1
				c-0.2-0.1-0.4-0.4-0.4-0.7c0-0.4,0-0.5,0.2-0.7c0.1-0.1,0.4-0.2,0.5-0.1c0.1-0.2,0-0.4,0-0.5c-0.3-0.6-0.7-0.8-1.2-1
				c-0.8-0.2-1.6,0.4-2.3,1.1c-0.6,0.5-1.2,1.4-1.7,2.1c-0.1-0.1-0.2-0.2-0.3-0.3c0.6-0.9,1.9-2.5,2.6-2.8c0.2-0.2,0.5-0.3,0.9-0.4
				c0.5-0.1,1.1,0,1.6,0.4c0.4,0.3,0.9,0.9,1,1.5C61.8,22.2,61.8,22.7,61.5,23z"/>
		</g>
		<g>
			<g>
				<path class="st1" d="M51,20.9c-0.5,0.3-0.8,0.5-1.6,0.8c-0.4,0.1-0.7,0.2-1.1,0.1c-0.4-0.1-0.7-0.4-0.9-0.9c0-0.4,0-0.7,0.3-0.9
					c0.3-0.3,0.6-0.2,0.8-0.2c0.1,0,0.1-0.1,0-0.2c-0.3-0.1-0.5-0.1-0.7-0.1c-0.4,0-0.8,0.2-1,0.3c-0.5,0.3-0.5,0.7-0.6,1.1
					c0,0.4,0.1,0.7,0.4,1c0.1,0.2,0.4,0.4,0.5,0.4c0.8,0.4,2,0.3,2.7-0.1c1-0.5,1.8-1.2,2.6-1.9c-0.1-0.1-0.3-0.2-0.4-0.3
					c-0.5,0.4-0.9,0.8-0.9,0.8C51.2,20.7,51.1,20.8,51,20.9z"/>
			</g>
		</g>
		<g>
			<g>
				<path class="st1" d="M55.6,23.1L55.6,23.1c-0.2,0.3-0.4,0.6-0.7,1.1c-0.1,0,0.1-0.8,0.1-0.8l0.1-1c-0.4-0.4-0.9-0.9-1.3-1.3
					c0,0,0,0,0,0c0,0,0,0,0,0.1c-0.1,1.1-0.1,1.3-0.1,1.9c-0.1,1.3,0,1.7-0.6,2.7c-0.3,0.4-0.6,0.4-0.8,0.5c0.5,0.2,1.3,0.5,1.9,0.1
					c0.9-0.6,1.2-1.9,1.9-3.1l0,0c0,0,0,0,0,0C55.8,23.2,55.7,23.1,55.6,23.1C55.6,23.1,55.6,23.1,55.6,23.1z"/>
			</g>
		</g>
		<g>
			<g>
				<path class="st1" d="M44.5,30.6C44.5,30.6,44.6,30.6,44.5,30.6L44.5,30.6L44.5,30.6C44.6,30.5,44.6,30.5,44.5,30.6"/>
			</g>
		</g>
		<g>
			<path class="st1" d="M44.6,30.5c0.8-0.9,1.7-2.4,2-3.4c0.1,0,1.9-0.5,3.1-1.8c-1.1,1.3-1.5,3.1-1.5,3.2c-0.9,0.3-2.2,1.1-3.1,1.9
				l0.7-0.1l0.2,0l0.2,0l0.3,0l0.2,0l0.2,0l0.2,0l0.2,0l0.3,0l0.2,0l0.3,0l0.3,0l0.3,0l0.3,0l0.3,0l0.3,0l0.2,0l0.1-0.3l0.4-2.8
				l0.3-2.1l-0.4,0.2l-4.2,1.5l-0.6,2.4l-0.2,0.7v-0.7v-0.4l0-0.4l0-0.3l0-0.4l0-0.3l0-0.3l0-0.3l0-0.3V26l0.1,0l4.6-1.3l0.4-0.1
				l0-0.3l-0.2,0.1l-0.4,0.1l-0.4,0.1l-0.4,0.1L49,24.7l-0.3,0.1l-0.4,0.1L48,25L47.6,25l-0.4,0.1l-0.4,0.1l-0.4,0.1l-0.3,0.1
				l-0.4,0.1l-0.4,0.1l-0.3,0.1l0,0.1v0.1v0.1v0h0l0,0l0,0l0,0L45,29.4v0.2l-0.1-0.1l-0.1,0l-0.1,0l-0.1,0l-0.1,0h-0.1h-0.1h-0.1
				h-0.1l0,0l0,0.1v0.2l0,0.2l0.1,0.2l0.1,0.2l0.1,0.2l0.1,0.2C44.5,30.7,44.5,30.6,44.6,30.5L44.6,30.5z"/>
		</g>
		<g>
			<path class="st1" d="M44.7,31l0.5-0.4l0.7-0.1l0.1,0.6C46,31.1,45.1,31.4,44.7,31z"/>
		</g>
		<g>
			<g>
				<path class="st1" d="M39.4,36.6l5.2-5.6l-0.2-0.3l-5.3,5.6C39.2,36.5,39.3,36.6,39.4,36.6z"/>
			</g>
			<g>
				<path class="st1" d="M36.7,39l-5.9,6.3v0.4l0,0l6.1-6.5C36.8,39.2,36.8,39.1,36.7,39z"/>
			</g>
		</g>
	</g>
	<g>
		<g>
			<g>
				<path class="st1" d="M69.4,23.5c-0.3,1.2-0.9,3.4-1.4,4.4c-0.5,1-1.2,1.1-2.3,1.2l-0.1,0.5c0.9,0,1.8-0.1,2.7-0.1
					c0.9,0,1.9,0.1,2.8,0.1l0.1-0.5c-1,0-2.1,0-2.1-1.3c0-0.9,0.6-3.2,0.8-4.1l1.8-6.8L78.3,30h0.5l3.4-12.8
					c0.4-1.5,0.8-2.6,2.5-2.6l0.1-0.5c-0.9,0-1.8,0.1-2.6,0.1c-0.8,0-1.7-0.1-2.5-0.1l-0.1,0.5c1.1,0.1,2,0,2,1.4
					c0,0.8-0.4,2.3-0.6,3.1l-2.1,7.7l-6.3-12.6c-0.6,0-1.2,0.1-1.7,0.1c-0.7,0-1.4-0.1-2-0.1l-0.1,0.5c1.7,0.1,1.7,0.1,2.5,1.6
					L69.4,23.5L69.4,23.5z"/>
			</g>
			<g>
				<path class="st1" d="M78.9,30.1h-0.6l0,0l-6.4-12.9l-1.8,6.6c-0.6,2.1-0.8,3.5-0.8,4.1c0,1.1,0.9,1.2,1.8,1.2l0.2,0l-0.2,0.7
					l-0.1,0c-0.5,0-0.9,0-1.4,0c-0.5,0-0.9,0-1.4,0c-0.4,0-0.9,0-1.4,0c-0.5,0-0.9,0-1.3,0l-0.1,0l0.1-0.7l0.1,0
					c1-0.1,1.6-0.2,2.1-1.2c0.5-0.9,1-2.8,1.3-4l0.1-0.4l1.9-7.3l0,0c-0.7-1.4-0.7-1.4-2.4-1.5l-0.1,0L69,14l0.1,0c0.3,0,0.7,0,1,0
					c0.3,0,0.7,0,1,0c0.3,0,0.6,0,0.9,0c0.3,0,0.6,0,0.9,0l0,0l0,0L79,26.5l2-7.5c0.1-0.5,0.6-2.2,0.6-3c0-1.2-0.8-1.2-1.8-1.3
					l-0.3,0l0.2-0.7l0.1,0c0.4,0,0.8,0,1.3,0c0.4,0,0.8,0,1.3,0c0.4,0,0.9,0,1.3,0c0.4,0,0.9,0,1.3,0l0.1,0l-0.2,0.7l-0.1,0
					c-1.6,0-2,1-2.5,2.5L78.9,30.1z M78.4,30h0.4l3.4-12.8c0.4-1.3,0.7-2.6,2.6-2.6l0.1-0.4c-0.4,0-0.8,0-1.2,0c-0.4,0-0.9,0-1.3,0
					c-0.4,0-0.8,0-1.3,0c-0.4,0-0.8,0-1.2,0l-0.1,0.4l0.1,0c1,0.1,1.9,0.1,1.9,1.4c0,0.9-0.4,2.6-0.6,3.1l-2.1,7.9l-6.3-12.7
					c-0.3,0-0.5,0-0.8,0c-0.3,0-0.6,0-0.9,0c-0.3,0-0.7,0-1,0c-0.3,0-0.6,0-1,0L69,14.5c1.6,0.1,1.7,0.2,2.4,1.5l0,0.1l0,0l-2.1,7.7
					c-0.3,1.2-0.8,3.1-1.3,4c-0.5,1-1.2,1.1-2.2,1.2l0,0l-0.1,0.4c0.4,0,0.8,0,1.3,0c0.5,0,0.9,0,1.4,0c0.5,0,0.9,0,1.4,0
					c0.4,0,0.9,0,1.3,0l0.1-0.4l-0.1,0c-0.9,0-2-0.1-2-1.3c0-0.7,0.3-2,0.8-4.2l1.9-7L78.4,30z"/>
			</g>
		</g>
		<g>
			<g>
				<path class="st2" d="M84.5,29.9c3.1,0,5.4-3.9,5.4-6.6c0-2-1.1-3.8-3.2-3.8c-3.2,0-5.4,4.3-5.4,7C81.3,28.5,82.5,29.9,84.5,29.9
					L84.5,29.9z M84.5,29.4c-1.1,0-1.6-0.7-1.6-1.8c0-1.9,1.4-7.6,3.9-7.6c1,0,1.4,0.9,1.4,1.7C88.2,23.7,87.1,29.4,84.5,29.4
					L84.5,29.4z"/>
			</g>
			<g>
				<path class="st1" d="M84.5,30c-2,0-3.3-1.4-3.3-3.5c0-2.8,2.3-7.1,5.5-7.1c2.3,0,3.3,1.9,3.3,3.9C90,26,87.7,30,84.5,30z
					 M86.7,19.5c-3.1,0-5.4,4.1-5.4,6.9c0,2,1.3,3.4,3.2,3.4c3.1,0,5.3-3.9,5.3-6.6C89.9,21.4,88.9,19.5,86.7,19.5z M84.5,29.5
					c-1.1,0-1.7-0.7-1.7-1.8c0-1.9,1.4-7.7,3.9-7.7c1,0,1.5,0.9,1.5,1.8C88.3,23.9,87.2,29.5,84.5,29.5z M86.8,20.1
					c-2.4,0-3.8,5.7-3.8,7.6c0,0.8,0.3,1.7,1.5,1.7c2.5,0,3.6-5.8,3.6-7.6C88.2,20.9,87.7,20.1,86.8,20.1z"/>
			</g>
		</g>
		<g>
			<g>
				<path class="st1" d="M89.2,23.1c0.2-0.5,1.5-2.9,2.1-2.9c0.4,0,0.4,1.1,0.4,1.3c0,1.2-0.4,3.1-0.7,4.3l-1.2,3.9h1.7l0.8-2.2
					c0.6-1.8,1.3-3.9,2.1-5.5c0.2-0.4,1-1.6,1.5-1.6c0.2,0,0.2,0.4,0.2,0.5c0,0.5,0.3,0.8,0.8,0.8c0.5,0,0.9-0.4,0.9-0.9
					c0-0.7-0.7-1.1-1.3-1.1c-1.7,0-2.8,2.5-3.3,3.8l0,0c0-0.5,0.2-1,0.2-1.6c0-0.9-0.4-2.2-1.6-2.2c-1.2,0-2.6,2.4-3,3.5L89.2,23.1
					L89.2,23.1z"/>
			</g>
			<g>
				<path class="st1" d="M91.5,29.7h-1.9l0-0.1l1.2-3.9c0.3-1.3,0.7-3.2,0.7-4.2v-0.1c0-0.2,0-0.9-0.2-1.1c0,0-0.1-0.1-0.1-0.1
					c-0.5,0-1.8,2.3-2,2.9l0,0.1L88.6,23l0-0.1c0.4-1.1,1.8-3.5,3.1-3.5c0.4,0,0.7,0.1,1,0.4c0.4,0.4,0.6,1.1,0.6,1.8
					c0,0.3-0.1,0.6-0.1,0.9c0,0.1,0,0.2-0.1,0.4c0.6-1.4,1.7-3.5,3.2-3.5c0.7,0,1.4,0.4,1.4,1.2c0,0.5-0.5,0.9-1,0.9
					c-0.5,0-0.8-0.3-0.8-0.8c0,0,0,0,0-0.1c0-0.1,0-0.3,0-0.3c0,0,0,0,0,0c-0.4,0-1.2,1.2-1.4,1.6c-0.9,1.6-1.5,3.7-2.1,5.4l0,0.1
					L91.5,29.7z M89.8,29.5h1.6l0.8-2.3c0.6-1.8,1.3-3.8,2.1-5.5c0.1-0.3,1-1.7,1.5-1.7c0.1,0,0.1,0,0.2,0.1
					c0.1,0.1,0.1,0.3,0.1,0.4c0,0,0,0,0,0.1c0,0.4,0.3,0.7,0.7,0.7c0.5,0,0.8-0.4,0.8-0.8c0-0.7-0.6-1-1.2-1c-1.6,0-2.7,2.3-3.2,3.7
					l0,0.1L93,23.2l0,0c0-0.2,0.1-0.5,0.1-0.7c0-0.3,0.1-0.6,0.1-0.9c0-0.5-0.1-1.3-0.6-1.7c-0.2-0.3-0.6-0.4-0.9-0.4
					c-1.2,0-2.5,2.2-2.9,3.3l0.4,0.1c0.3-0.6,1.5-2.9,2.1-2.9c0.1,0,0.2,0,0.2,0.1c0.2,0.2,0.2,0.8,0.2,1.2v0.1
					c0,1.1-0.4,2.9-0.7,4.3L89.8,29.5z"/>
			</g>
		</g>
		<g>
			<g>
				<path class="st1" d="M99.9,16.5l-1.1,3.3h-1.9l-0.2,0.5h1.9l-1.3,4.6c-0.3,1-0.8,2.4-0.8,3.4c0,0.9,0.7,1.6,1.6,1.6
					c1.8,0,2.7-2.2,3.4-3.5l-0.5-0.3c-0.4,0.8-1.4,3.1-2.4,3.1c-0.4,0-0.4-0.3-0.4-0.6c0-0.8,1.6-6.5,2-7.7l0.2-0.6h1.8l0.2-0.5
					h-1.8l1-3.3H99.9L99.9,16.5z"/>
			</g>
			<g>
				<path class="st1" d="M98.1,30c-1,0-1.6-0.7-1.6-1.6c0-0.9,0.4-2.2,0.7-3.1l0.1-0.3l1.3-4.5h-1.9l0.2-0.7h1.9l1.1-3.3h1.8l0,0.1
					l-1,3.2h1.8l-0.2,0.7h-1.8l-0.2,0.6c-0.3,1.1-1.9,6.8-1.9,7.6c0,0.4,0.1,0.6,0.3,0.6c0.8,0,1.7-1.8,2.2-2.7
					c0.1-0.1,0.1-0.3,0.2-0.4l0-0.1l0.6,0.3l0,0.1c-0.1,0.1-0.1,0.3-0.2,0.4C100.6,28.2,99.7,30,98.1,30z M96.8,20.2h1.9l-1.5,5.1
					c-0.3,0.9-0.6,2.2-0.6,3.1c0,0.9,0.6,1.5,1.5,1.5c1.6,0,2.5-1.8,3.1-3.1c0.1-0.1,0.1-0.2,0.2-0.4l-0.3-0.2
					c0,0.1-0.1,0.2-0.1,0.3c-0.5,1-1.4,2.8-2.3,2.8c-0.5,0-0.5-0.5-0.5-0.7c0-0.9,1.6-6.6,2-7.7l0.2-0.7h1.8l0.1-0.4h-1.8l0-0.1
					l1-3.2h-1.5l-1.1,3.3h-1.9L96.8,20.2z"/>
			</g>
		</g>
		<g>
			<g>
				<path class="st1" d="M106.5,25.1c-0.2,0.6-0.8,2.1-0.8,3.3c0,0.9,0.3,1.6,1.4,1.6c1.7,0,2.8-2.1,3.4-3.5l-0.5-0.2
					c-0.4,0.8-1.6,3-2.5,3c-0.7,0-0.1-1.3-0.1-1.5l1-2.8c0.4-1,0.8-2.3,0.8-3.3c0-1.1-0.4-2-1.7-2c-1.8,0-3,1.8-4,3.1l0,0L106,14
					l-3.8,0.2l-0.1,0.5h0.4c0.5,0,1.3,0,1.3,0.8c0,0.4-0.2,1-0.3,1.3l-3.7,12.8h1.6l0.4-1.2c0.6-1.8,2.7-8.1,5.3-8.1
					c0.4,0,0.7,0.3,0.7,0.7c0,0.7-0.5,2.2-0.8,2.8L106.5,25.1L106.5,25.1z"/>
			</g>
			<g>
				<path class="st1" d="M107,30c-1,0-1.4-0.5-1.4-1.6c0-1.2,0.6-2.7,0.8-3.3l0.5-1.5c0.3-0.8,0.7-2,0.7-2.6c0-0.4-0.3-0.7-0.6-0.7
					c-1.7,0-3.5,2.9-5.2,8.1l-0.4,1.3h-1.7l0-0.1l3.7-12.8c0-0.1,0-0.2,0.1-0.3c0.1-0.4,0.2-0.8,0.2-1.1c0-0.6-0.5-0.7-1.1-0.7
					l-0.1,0H102l0.2-0.7l0.1,0l3.9-0.2l0,0.1l-2.5,8.5c0.9-1.3,2.1-2.9,3.9-2.9c0.5,0,1,0.2,1.2,0.4c0.3,0.3,0.5,0.9,0.5,1.7
					c0,0.9-0.2,2-0.8,3.4l-1,2.8c0,0,0,0,0,0.1c-0.1,0.2-0.4,1-0.2,1.2c0,0.1,0.1,0.1,0.2,0.1c0.8,0,1.9-1.9,2.5-2.9l0-0.1l0.6,0.3
					l0,0.1C109.5,28.8,108.3,30,107,30z M107,20.2c0.5,0,0.8,0.3,0.8,0.8c0,0.6-0.4,1.9-0.7,2.7l-0.1,0.2l-0.5,1.2
					c-0.2,0.6-0.8,2.1-0.8,3.2c0,1,0.4,1.5,1.3,1.5c1.2,0,2.3-1.1,3.3-3.4l-0.4-0.2c-0.3,0.6-1.5,3-2.6,3c-0.1,0-0.3-0.1-0.3-0.2
					c-0.2-0.3,0-0.9,0.2-1.4c0,0,0-0.1,0-0.1l1-2.8c0.5-1.4,0.7-2.5,0.7-3.3c0-0.7-0.1-1.2-0.4-1.5c-0.3-0.3-0.6-0.4-1.1-0.4
					c-1.7,0-2.9,1.6-3.8,3l-0.1,0.2l-0.1-0.1l2.5-8.6l-3.7,0.2l-0.1,0.4l0.4,0c0.5,0,1.3,0,1.3,0.8c0,0.3-0.1,0.7-0.2,1.1
					c0,0.1,0,0.2-0.1,0.3l-3.7,12.7h1.4l0.4-1.2C102.6,25.3,104.7,20.2,107,20.2z"/>
			</g>
		</g>
		<g>
			<path class="st1" d="M74.6,31.1c2.5,0,3.1,1.7,3.2,4.2l0,0.1h0.6l0.9-4.5H79l-0.8,0.8c-1.3-0.8-2.3-1.2-3.7-1.2
				c-5.2,0-9.1,5.3-9.1,10.1c0,3.6,2.4,6,5.9,6c1.9,0,3.2-0.4,4.7-1.4l0.3,0.5h0.4l1.3-4.3l0-0.1h-0.6l-0.1,0.1
				c-1.3,2.3-2.4,4.6-5.5,4.6c-2.5,0-3.9-1.6-3.9-4.5C67.9,38,70.2,31.1,74.6,31.1z"/>
		</g>
		<g>
			<g>
				<path class="st2" d="M82,36.6c0.7,0,1.1,0.6,1.1,1.2c0,1.3-0.8,3.4-1.4,4.6C81.1,43.8,80,46,78.3,46c-0.8,0-1.2-0.9-1.2-1.6
					C77.2,42.5,79.7,36.6,82,36.6L82,36.6z M83.6,37.4c-0.3-0.8-0.9-1.3-1.8-1.3c-3.3,0-6.4,4.6-6.4,7.7c0,1.5,1.1,2.8,2.7,2.8
					c1.6,0,2.8-1.4,3.5-2.7l0,0c-0.1,0.4-0.2,0.9-0.2,1.3c0,0.8,0.6,1.3,1.4,1.3c1.8,0,2.6-2.3,3.3-3.7l-0.5-0.2
					c-0.4,0.7-1.5,3.2-2.3,3.2c-0.3,0-0.3-0.4-0.3-0.6c0-1.4,1.1-4.9,1.6-6.1l1-2.8H84L83.6,37.4L83.6,37.4z"/>
			</g>
			<g>
				<path class="st1" d="M82.9,46.6c-0.9,0-1.5-0.5-1.5-1.4c0-0.3,0.1-0.6,0.1-1c0-0.1,0-0.1,0-0.2c-1,1.7-2.2,2.5-3.4,2.5
					c-1.6,0-2.7-1.2-2.7-2.8c0-2.9,3-7.7,6.4-7.7c0.8,0,1.4,0.4,1.8,1.2l0.3-0.8h1.8l-1.1,2.9c-0.4,1.1-1.5,4.6-1.5,6
					c0,0.4,0.1,0.5,0.2,0.5c0.7,0,1.7-2,2.1-2.9c0-0.1,0.1-0.2,0.1-0.3l0-0.1l0.6,0.3l0,0.1c-0.1,0.2-0.2,0.5-0.3,0.7
					C85.2,44.9,84.4,46.6,82.9,46.6z M81.6,43.7l0.1,0.1l0,0c0,0.1-0.1,0.3-0.1,0.4c-0.1,0.3-0.1,0.6-0.1,0.9c0,0.8,0.5,1.3,1.3,1.3
					c1.5,0,2.2-1.6,2.9-2.9c0.1-0.2,0.2-0.4,0.3-0.6l-0.4-0.2c0,0.1-0.1,0.1-0.1,0.2c-0.5,1-1.5,3-2.2,3c-0.3,0-0.4-0.2-0.4-0.6
					c0-1.4,1.2-5,1.6-6.1l1-2.7H84l-0.4,1.1l-0.1-0.2c-0.3-0.8-0.9-1.2-1.7-1.2c-3.4,0-6.3,4.7-6.3,7.6c0,1.5,1.1,2.7,2.6,2.7
					C79.4,46.5,80.5,45.6,81.6,43.7L81.6,43.7z M78.3,46.1c-0.8,0-1.2-0.9-1.2-1.7c0-2,2.6-7.9,4.9-7.9c0.7,0,1.2,0.7,1.2,1.3
					c0,1.5-1,3.7-1.4,4.6C81,44.2,79.9,46.1,78.3,46.1z M82,36.7c-2.3,0-4.8,5.8-4.8,7.7c0,0.7,0.3,1.5,1.1,1.5
					c1.5,0,2.6-1.9,3.4-3.5c0.4-0.9,1.4-3.1,1.4-4.6C83.1,37.3,82.7,36.7,82,36.7z"/>
			</g>
		</g>
		<g>
			<g>
				<path class="st1" d="M85.7,39.7c0.2-0.5,1.5-2.9,2.1-2.9c0.4,0,0.4,1.1,0.4,1.3c0,1.2-0.4,3.1-0.7,4.3l-1.2,3.9H88l0.8-2.2
					c0.6-1.8,1.3-3.9,2.1-5.5c0.2-0.4,1-1.6,1.5-1.6c0.2,0,0.2,0.4,0.2,0.5c0,0.5,0.3,0.8,0.8,0.8c0.5,0,0.9-0.4,0.9-0.9
					c0-0.7-0.7-1.1-1.3-1.1c-1.7,0-2.8,2.5-3.3,3.8l0,0c0-0.5,0.2-1,0.2-1.6c0-0.9-0.4-2.2-1.5-2.2c-1.2,0-2.6,2.4-3,3.5L85.7,39.7
					L85.7,39.7z"/>
			</g>
			<g>
				<path class="st1" d="M88.1,46.3h-1.9l0-0.1l1.2-3.9c0.3-1.3,0.7-3.2,0.7-4.2l0-0.1c0-0.2,0-0.9-0.2-1.1c0,0-0.1-0.1-0.1-0.1
					c-0.5,0-1.8,2.3-2,2.9l0,0.1l-0.6-0.2l0-0.1c0.4-1.1,1.8-3.5,3.1-3.5c0.4,0,0.7,0.1,1,0.4c0.4,0.4,0.6,1.1,0.6,1.8
					c0,0.3-0.1,0.6-0.1,0.9c0,0.1,0,0.2-0.1,0.4c0.6-1.4,1.7-3.5,3.2-3.5c0.7,0,1.4,0.4,1.4,1.2c0,0.5-0.5,0.9-1,0.9
					c-0.5,0-0.8-0.3-0.8-0.8c0,0,0,0,0-0.1c0-0.1,0-0.3,0-0.3c0,0,0,0,0,0c-0.4,0-1.2,1.2-1.4,1.6c-0.9,1.6-1.5,3.7-2.1,5.4l0,0.1
					L88.1,46.3z M86.4,46.2H88l0.8-2.3c0.6-1.8,1.3-3.8,2.1-5.5c0.1-0.3,1-1.7,1.5-1.7c0.1,0,0.1,0,0.1,0.1c0.1,0.1,0.1,0.3,0.1,0.4
					c0,0,0,0,0,0.1c0,0.4,0.3,0.7,0.7,0.7c0.5,0,0.8-0.4,0.8-0.8c0-0.7-0.6-1-1.2-1c-1.6,0-2.7,2.3-3.2,3.7l0,0.1l-0.1-0.1l0,0
					c0-0.2,0.1-0.5,0.1-0.7c0-0.3,0.1-0.6,0.1-0.9c0-0.5-0.1-1.3-0.6-1.7c-0.2-0.3-0.6-0.4-0.9-0.4c-1.2,0-2.5,2.2-2.9,3.3l0.4,0.1
					c0.3-0.6,1.5-2.9,2.1-2.9c0.1,0,0.2,0,0.2,0.1c0.2,0.2,0.2,0.8,0.2,1.2l0,0.1c0,1.1-0.4,2.9-0.7,4.3L86.4,46.2z"/>
			</g>
		</g>
		<g>
			<g>
				<path class="st2" d="M95,46.5c3.1,0,5.4-3.9,5.4-6.6c0-2-1.1-3.8-3.2-3.8c-3.2,0-5.4,4.3-5.4,7C91.7,45.1,92.9,46.5,95,46.5
					L95,46.5z M95,46c-1.1,0-1.6-0.7-1.6-1.8c0-1.9,1.4-7.6,3.9-7.6c1,0,1.4,0.9,1.4,1.7C98.7,40.3,97.6,46,95,46L95,46z"/>
			</g>
			<g>
				<path class="st1" d="M95,46.6c-2,0-3.3-1.4-3.3-3.5c0-2.8,2.3-7.1,5.5-7.1c2.3,0,3.3,1.9,3.3,3.9C100.5,42.6,98.2,46.6,95,46.6z
					 M97.1,36.2c-3.1,0-5.4,4.1-5.4,6.9c0,2,1.3,3.4,3.2,3.4c3.1,0,5.3-3.9,5.3-6.6C100.3,38,99.3,36.2,97.1,36.2z M95,46.1
					c-1.1,0-1.7-0.6-1.7-1.8c0-1.9,1.4-7.7,3.9-7.7c1,0,1.5,0.9,1.5,1.8C98.8,40.5,97.6,46.1,95,46.1z M97.3,36.7
					c-2.4,0-3.8,5.7-3.8,7.6c0,0.8,0.3,1.7,1.5,1.7c2.5,0,3.6-5.8,3.6-7.6C98.6,37.5,98.2,36.7,97.3,36.7z"/>
			</g>
		</g>
		<g>
			<g>
				<path class="st1" d="M106.3,30.6l-3.9,0.2l-0.1,0.5c0.5,0,1.7-0.1,1.7,0.8c0,0.3-0.2,0.7-0.2,1l-2.4,7.9
					c-0.3,0.9-0.9,2.9-0.9,3.8c0,1,0.5,1.9,1.6,1.9c1.7,0,2.7-2.1,3.4-3.4l-0.5-0.3c-0.3,0.7-1.6,3-2.4,3c-0.4,0-0.4-0.4-0.4-0.7
					c0-1.3,1-4.3,1.4-5.7L106.3,30.6L106.3,30.6z"/>
			</g>
			<g>
				<path class="st1" d="M102.1,46.6c-1.1,0-1.7-0.7-1.7-1.9c0-0.6,0.3-1.9,0.9-3.8l2.4-7.9c0,0,0-0.1,0-0.1
					c0.1-0.2,0.2-0.6,0.2-0.8c0-0.6-0.6-0.7-1.3-0.7c-0.1,0-0.2,0-0.3,0l-0.1,0l0.2-0.6l4.1-0.2l0,0.1l-2.8,8.9
					c0,0.2-0.1,0.4-0.2,0.6c-0.5,1.5-1.2,4-1.2,5.1c0,0.1,0,0.6,0.4,0.6c0.7,0,2-2.1,2.3-2.9l0-0.1l0.7,0.3l-0.1,0.3
					C104.8,44.7,103.8,46.6,102.1,46.6z M102.3,31.3c0.1,0,0.1,0,0.2,0c0.6,0,1.4,0,1.4,0.8c0,0.2-0.1,0.6-0.2,0.8
					c0,0.1,0,0.1,0,0.1l-2.4,7.9c-0.7,2.3-0.9,3.3-0.9,3.7c0,0.9,0.4,1.8,1.6,1.8c1.6,0,2.6-1.9,3.3-3.2l0.1-0.1L105,43
					c-0.3,0.7-1.6,2.9-2.4,2.9c-0.4,0-0.5-0.4-0.5-0.8c0-1.1,0.8-3.6,1.2-5.1c0.1-0.2,0.1-0.4,0.2-0.6l2.8-8.8l-3.8,0.2L102.3,31.3z
					"/>
			</g>
		</g>
		<g>
			<g>
				<path class="st2" d="M105.4,41.7c-0.4,0.9-1,2.2-1,3.2c0,0.9,0.6,1.7,1.5,1.7c1.5,0,2.8-2.1,3.3-3.3l-0.5-0.2
					c-0.4,0.7-1.6,2.8-2.5,2.8c-0.2,0-0.4-0.2-0.4-0.4c0-0.4,0.6-1.8,0.7-2.2l0.8-1.9c0.4-1.1,1.1-2.5,1.1-3.6
					c0-0.8-0.6-1.6-1.5-1.6c-1.5,0-2.5,1.9-3.2,3l0.5,0.3c0.3-0.6,1.5-2.6,2.2-2.6c0.3,0,0.4,0.2,0.4,0.5c0,0.6-0.7,2.3-0.9,2.8
					L105.4,41.7L105.4,41.7z M108.4,32.9c0.6,0,1.1-0.5,1.1-1c0-0.6-0.4-1.1-1.1-1.1c-0.6,0-1.1,0.5-1.1,1.1
					C107.4,32.5,107.9,32.9,108.4,32.9L108.4,32.9z"/>
			</g>
			<g>
				<path class="st1" d="M105.9,46.6c-0.9,0-1.6-0.7-1.6-1.8c0-0.8,0.4-1.8,0.8-2.6c0.1-0.2,0.2-0.4,0.2-0.6l0.7-1.7
					c0.2-0.6,0.8-2.1,0.8-2.6c0-0.2-0.1-0.4-0.3-0.4c-0.6,0-1.7,1.7-2.1,2.5l0,0.1l-0.6-0.3l0-0.1c0.1-0.1,0.1-0.2,0.2-0.3
					c0.7-1.2,1.6-2.8,3.1-2.8c1,0,1.5,0.8,1.5,1.7c0,1-0.5,2.1-0.9,3.1c-0.1,0.2-0.2,0.4-0.2,0.5l-0.8,1.9c0,0.1-0.1,0.2-0.1,0.3
					c-0.2,0.5-0.6,1.6-0.6,1.9c0,0.2,0.1,0.3,0.3,0.3c0.8,0,2.1-2,2.5-2.8l0-0.1l0.6,0.3l0,0.1C108.7,44.5,107.5,46.6,105.9,46.6z
					 M106.6,36.7c0.3,0,0.5,0.3,0.5,0.5c0,0.5-0.6,2-0.8,2.7l-0.1,0.2l-0.7,1.6c-0.1,0.2-0.2,0.4-0.2,0.6c-0.4,0.8-0.8,1.8-0.8,2.6
					c0,1,0.6,1.6,1.5,1.6c1.5,0,2.6-2,3.2-3.2l-0.3-0.2c-0.3,0.7-1.6,2.8-2.5,2.8c-0.3,0-0.4-0.2-0.4-0.5c0-0.4,0.4-1.3,0.6-1.9
					c0.1-0.1,0.1-0.2,0.1-0.3l0.8-1.9c0.1-0.2,0.1-0.4,0.2-0.6c0.4-1,0.9-2.1,0.9-3c0-0.8-0.5-1.5-1.4-1.5c-1.4,0-2.3,1.6-2.9,2.7
					c0,0.1-0.1,0.1-0.1,0.2l0.3,0.2C104.5,38.9,105.7,36.7,106.6,36.7z M108.4,33c-0.6,0-1.1-0.5-1.1-1.1c0-0.7,0.5-1.2,1.1-1.2
					c0.7,0,1.2,0.5,1.2,1.2C109.6,32.5,109.1,33,108.4,33z M108.4,30.9c-0.6,0-1,0.4-1,1c0,0.5,0.4,1,1,1c0.5,0,1-0.4,1-1
					C109.5,31.3,109,30.9,108.4,30.9z"/>
			</g>
		</g>
		<g>
			<g>
				<path class="st1" d="M111.6,45.5c0.6-1.9,1.3-4,2.3-5.7c0.5-1,1.9-3,3.2-3c0.5,0,0.8,0.4,0.8,0.8c0,0.8-0.6,2.1-0.8,2.8
					l-0.4,1.2c-0.3,0.9-0.9,2.4-0.9,3.3c0,0.9,0.5,1.7,1.6,1.7c1.6,0,2.7-2.1,3.4-3.4l-0.5-0.2c-0.3,0.8-1.5,3-2.4,3
					c-0.3,0-0.5-0.4-0.5-0.7c0-0.5,0.6-2.1,0.8-2.5l0.4-1.1c0.4-1,0.8-2.4,0.8-3.5c0-1-0.8-1.9-1.8-1.9c-2,0-3.4,2.3-4.2,3.8l0,0
					l0.1-0.4c0.1-0.5,0.2-1.2,0.2-1.7c0-0.9-0.5-1.6-1.4-1.6c-1.8,0-2.7,2.3-3.3,3.7l0.5,0.2c0.4-0.7,1.4-3.1,2.3-3.1
					c0.4,0,0.4,0.5,0.4,0.8c0,1.6-1.2,5.5-1.8,7.2l-0.5,1.5h1.8L111.6,45.5L111.6,45.5z"/>
			</g>
			<g>
				<path class="st1" d="M117.3,46.6c-1,0-1.6-0.7-1.6-1.7c0-0.8,0.4-1.9,0.7-2.9c0.1-0.2,0.1-0.3,0.2-0.5l0.4-1.2
					c0-0.1,0.1-0.2,0.1-0.4c0.3-0.7,0.7-1.7,0.7-2.4c0-0.4-0.3-0.7-0.7-0.7c-1.4,0-2.8,2.5-3.1,3c-1,1.8-1.8,4.1-2.2,5.6l-0.2,0.8
					h-1.9l0.5-1.6c0.7-2,1.8-5.6,1.8-7.2c0-0.5-0.1-0.7-0.4-0.7c-0.8,0-1.6,1.7-2,2.6c-0.1,0.2-0.2,0.3-0.2,0.4l0,0.1l-0.6-0.2
					l0-0.1c0-0.1,0.1-0.2,0.1-0.3c0.6-1.4,1.5-3.4,3.2-3.4c0.9,0,1.5,0.7,1.5,1.7c0,0.4-0.1,1-0.1,1.5l-0.1,0.5
					c0.9-1.6,2.2-3.6,4.1-3.6c1.1,0,1.9,0.9,1.9,2c0,1.2-0.6,2.8-0.8,3.5l-0.4,1.1c0,0.1-0.1,0.2-0.1,0.4c-0.2,0.7-0.7,1.8-0.7,2.1
					c0,0.2,0.1,0.6,0.4,0.6c0.9,0,2-2.1,2.3-2.9l0-0.1l0.6,0.3l0,0.1C120,44.6,118.9,46.6,117.3,46.6z M117.1,36.7
					c0.5,0,0.9,0.4,0.9,0.9c0,0.7-0.4,1.7-0.7,2.5c-0.1,0.1-0.1,0.3-0.1,0.4l-0.4,1.2c0,0.1-0.1,0.3-0.2,0.5c-0.3,0.9-0.7,2-0.7,2.8
					c0,1,0.6,1.6,1.5,1.6c1.5,0,2.6-1.9,3.3-3.3l-0.4-0.2c-0.2,0.5-1.4,2.9-2.4,2.9c-0.4,0-0.6-0.5-0.6-0.8c0-0.4,0.4-1.5,0.7-2.2
					c0.1-0.2,0.1-0.3,0.1-0.4l0.4-1.1c0.2-0.6,0.8-2.2,0.8-3.4c0-1-0.8-1.8-1.8-1.8c-1.9,0-3.3,2.2-4.1,3.8l0,0.1l-0.1-0.1l0.1-0.7
					c0.1-0.5,0.1-1,0.1-1.5c0-0.8-0.4-1.6-1.4-1.6c-1.7,0-2.5,1.9-3.1,3.3c0,0.1-0.1,0.2-0.1,0.2l0.3,0.1c0.1-0.1,0.1-0.2,0.2-0.4
					c0.5-1,1.3-2.7,2.2-2.7c0.5,0,0.5,0.6,0.5,0.8c0,1.5-1.1,5.2-1.8,7.2l-0.5,1.4h1.6l0.2-0.7c0.5-1.6,1.2-3.9,2.3-5.7
					C114.1,39.3,115.6,36.7,117.1,36.7z"/>
			</g>
		</g>
		<g>
			<g>
				<path class="st2" d="M126.2,36.6c0.7,0,1.1,0.6,1.1,1.2c0,1.3-0.8,3.4-1.4,4.6c-0.6,1.3-1.8,3.6-3.5,3.6c-0.8,0-1.2-0.9-1.2-1.6
					C121.3,42.5,123.9,36.6,126.2,36.6L126.2,36.6z M127.8,37.4c-0.3-0.8-0.9-1.3-1.8-1.3c-3.3,0-6.4,4.6-6.4,7.7
					c0,1.5,1.1,2.8,2.7,2.8c1.6,0,2.8-1.4,3.5-2.7l0,0c-0.1,0.4-0.2,0.9-0.2,1.3c0,0.8,0.6,1.3,1.4,1.3c1.8,0,2.6-2.3,3.3-3.7
					l-0.5-0.2c-0.4,0.7-1.5,3.2-2.3,3.2c-0.3,0-0.3-0.4-0.3-0.6c0-1.4,1.1-4.9,1.6-6.1l1-2.8h-1.7L127.8,37.4L127.8,37.4z"/>
			</g>
			<g>
				<path class="st1" d="M127.1,46.6c-0.9,0-1.5-0.5-1.5-1.4c0-0.3,0.1-0.6,0.1-1c0-0.1,0-0.1,0-0.2c-1,1.7-2.2,2.5-3.4,2.5
					c-1.6,0-2.7-1.2-2.7-2.8c0-2.9,3-7.7,6.4-7.7c0.8,0,1.4,0.4,1.8,1.2l0.3-0.8h1.8l-1.1,2.9c-0.4,1.1-1.5,4.6-1.5,6
					c0,0.4,0.1,0.5,0.2,0.5c0.7,0,1.7-2.1,2.1-2.9c0-0.1,0.1-0.2,0.1-0.2l0-0.1l0.6,0.3l0,0.1c-0.1,0.2-0.2,0.5-0.3,0.7
					C129.4,44.9,128.6,46.6,127.1,46.6z M125.8,43.7l0.1,0.1l0,0c0,0.1-0.1,0.3-0.1,0.4c-0.1,0.3-0.1,0.6-0.1,0.9
					c0,0.8,0.5,1.3,1.3,1.3c1.5,0,2.2-1.6,2.9-2.9c0.1-0.2,0.2-0.4,0.3-0.6l-0.4-0.2c0,0.1-0.1,0.1-0.1,0.2c-0.5,1-1.5,3-2.2,3
					c-0.3,0-0.4-0.2-0.4-0.6c0-1.4,1.2-5,1.6-6.1l1-2.7h-1.5l-0.4,1.1l-0.1-0.2c-0.3-0.8-0.9-1.2-1.7-1.2c-3.4,0-6.3,4.7-6.3,7.6
					c0,1.5,1.1,2.7,2.6,2.7C123.6,46.5,124.7,45.6,125.8,43.7L125.8,43.7z M122.5,46.1c-0.8,0-1.2-0.9-1.2-1.7c0-2,2.6-7.9,4.9-7.9
					c0.7,0,1.2,0.7,1.2,1.3c0,1.5-1,3.7-1.4,4.6C125.2,44.2,124.1,46.1,122.5,46.1z M126.2,36.7c-2.3,0-4.8,5.8-4.8,7.7
					c0,0.7,0.3,1.5,1.1,1.5c1.5,0,2.6-1.9,3.4-3.5c0.4-0.9,1.4-3.1,1.4-4.6C127.2,37.3,126.9,36.7,126.2,36.7z"/>
			</g>
		</g>
	</g>
</g>
</svg>
